<?xml version="1.0" encoding="UTF-8"?>
<svg width="1796px" height="209px" viewBox="0 0 1796 209" version="1.1" xmlns="http://www.w3.org/2000/svg" xmlns:xlink="http://www.w3.org/1999/xlink">
    <!-- Generator: Sketch 63 (92445) - https://sketch.com -->
    <title>Combined Shape</title>
    <desc>Created with Sketch.</desc>
    <g id="Page-1" stroke="none" stroke-width="1" fill="none" fill-rule="evenodd">
        <path d="M1709.60924,8.34548608 C1735.29047,8.34548608 1758.51302,21.1554445 1774.33338,41.3965139 C1787.63699,58.9292917 1795.53846,80.7901108 1795.53846,104.5 C1795.53846,162.213028 1748.75374,209 1691.03992,209 C1688.76701,209 1687.02822,208.872278 1687.02822,208.872278 C1707.87916,205.42668 1726.84327,194.567389 1741.48509,177.443903 C1758.26047,157.82693 1767.79333,131.240389 1767.88332,104.5 C1767.88332,68.2936528 1743.98151,34.1598889 1709.60924,34.1598889 C1678.09335,34.1598889 1651.34968,64.9670695 1651.34968,104.5 C1651.34968,129.327458 1662.37749,152.221667 1679.61152,164.790695 C1677.26023,165.223208 1674.87412,165.440917 1672.47059,165.440917 C1646.7371,165.440917 1623.60455,139.356555 1623.60455,104.5 C1623.60455,54.4996528 1659.94202,8.34548608 1709.60924,8.34548608 Z M1691.03992,0 C1693.31282,0 1695.04871,0.127722222 1695.04871,0.127722222 C1674.20067,3.57331945 1655.23655,14.4326111 1640.59183,31.5560972 C1623.81935,51.1730695 1614.2836,77.7596111 1614.19651,104.5 C1614.19651,140.706347 1638.09542,174.840111 1672.47059,174.840111 C1703.98648,174.840111 1730.72724,144.03293 1730.72724,104.5 C1730.72724,79.6725417 1719.70234,56.7783333 1702.46541,44.2093055 C1704.81959,43.7738889 1707.2028,43.5561805 1709.60924,43.5561805 C1735.33982,43.5561805 1758.47238,69.6405417 1758.47238,104.5 C1758.47238,154.500347 1722.13781,200.654514 1672.47059,200.654514 C1646.78935,200.654514 1623.5639,187.841653 1607.74645,167.606389 C1594.43993,150.067805 1586.53846,128.206986 1586.53846,104.5 C1586.53846,46.7869722 1633.32609,0 1691.03992,0 Z M59.68,47 C94.24,47 119.04,72.76 119.04,104.92 C119.04,136.76 93.92,162.84 59.36,162.84 C24.8,162.84 0,137.08 0,104.92 C0,73.08 25.12,47 59.68,47 Z M1327.89866,47 C1362.45866,47 1387.25866,72.76 1387.25866,104.92 C1387.25866,136.76 1362.13865,162.84 1327.57866,162.84 C1293.01865,162.84 1268.21866,137.08 1268.21866,104.92 C1268.21866,73.08 1293.33865,47 1327.89866,47 Z M856.808235,47 C891.368235,47 916.168235,72.76 916.168235,104.92 C916.168235,136.76 891.048235,162.84 856.488235,162.84 C821.928235,162.84 797.128235,137.08 797.128235,104.92 C797.128235,73.08 822.248235,47 856.808235,47 Z M506.77042,47.32 C523.09042,47.32 537.01042,52.44 548.37042,61.56 L548.37042,61.56 L535.57042,80.12 C525.65042,73.24 515.89042,69.08 506.45042,69.08 C497.01042,69.08 492.05042,73.4 492.05042,79.16 C492.05042,86.52 496.85042,88.92 516.21042,93.88 C538.93042,99.8 551.73042,107.96 551.73042,127.8 C551.73042,150.04 534.77042,162.52 510.61042,162.52 C493.65042,162.52 476.53042,156.6 463.09042,144.6 L463.09042,144.6 L477.65042,127.16 C487.73042,135.48 498.29042,140.76 511.09042,140.76 C521.17042,140.76 527.25042,136.76 527.25042,129.88 C527.25042,123.64 523.41042,120.44 504.69042,115.64 C482.13042,109.88 467.57042,103.64 467.57042,81.08 C467.57042,60.76 483.89042,47.32 506.77042,47.32 Z M322.58521,47.32 C338.90521,47.32 352.82521,52.44 364.18521,61.56 L364.18521,61.56 L351.38521,80.12 C341.46521,73.24 331.70521,69.08 322.26521,69.08 C312.82521,69.08 307.86521,73.4 307.86521,79.16 C307.86521,86.52 312.66521,88.92 332.02521,93.88 C354.74521,99.8 367.54521,107.96 367.54521,127.8 C367.54521,150.04 350.58521,162.52 326.42521,162.52 C309.46521,162.52 292.34521,156.6 278.90521,144.6 L278.90521,144.6 L293.46521,127.16 C303.54521,135.48 314.10521,140.76 326.90521,140.76 C336.98521,140.76 343.06521,136.76 343.06521,129.88 C343.06521,123.64 339.22521,120.44 320.50521,115.64 C297.94521,109.88 283.38521,103.64 283.38521,81.08 C283.38521,60.76 299.70521,47.32 322.58521,47.32 Z M208.892605,48.12 L256.892605,160.92 L231.132605,160.92 L220.892605,135.8 L173.532605,135.8 L163.292605,160.92 L138.172605,160.92 L186.172605,48.12 L208.892605,48.12 Z M428.757815,48.92 L428.757815,160.92 L404.117815,160.92 L404.117815,48.92 L428.757815,48.92 Z M675.75563,48.92 L705.19563,96.28 L734.63563,48.92 L761.19563,48.92 L761.19563,160.92 L736.71563,160.92 L736.71563,87.8 L705.19563,135.64 L704.55563,135.64 L673.35563,88.28 L673.35563,160.92 L649.19563,160.92 L649.19563,48.92 L675.75563,48.92 Z M974.82084,48.92 L1027.30084,117.88 L1027.30084,48.92 L1051.62084,48.92 L1051.62084,160.92 L1030.66084,160.92 L976.42084,89.72 L976.42084,160.92 L952.10084,160.92 L952.10084,48.92 L974.82084,48.92 Z M1118.27344,48.92 L1118.27344,160.92 L1093.63344,160.92 L1093.63344,48.92 L1118.27344,48.92 Z M1245.08605,48.92 L1245.08605,71.64 L1211.00605,71.64 L1211.00605,160.92 L1186.36605,160.92 L1186.36605,71.64 L1152.28605,71.64 L1152.28605,48.92 L1245.08605,48.92 Z M1474.39126,48.92 C1488.63126,48.92 1499.67126,52.92 1507.03126,60.28 C1513.27126,66.52 1516.63126,75.32 1516.63126,86.2 C1516.63126,104.28 1506.87126,115.64 1492.63126,120.92 L1492.63126,120.92 L1519.99126,160.92 L1491.19126,160.92 L1466.87126,125.08 L1447.83126,125.08 L1447.83126,160.92 L1423.19126,160.92 L1423.19126,48.92 Z M59.36,69.72 C39.52,69.72 25.76,85.4 25.76,104.92 C25.76,124.12 39.84,140.12 59.68,140.12 C79.52,140.12 93.28,124.44 93.28,104.92 C93.28,85.72 79.2,69.72 59.36,69.72 Z M856.488235,69.72 C836.648235,69.72 822.888235,85.4 822.888235,104.92 C822.888235,124.12 836.968235,140.12 856.808235,140.12 C876.648235,140.12 890.408235,124.44 890.408235,104.92 C890.408235,85.72 876.328235,69.72 856.488235,69.72 Z M1327.57866,69.72 C1307.73866,69.72 1293.97865,85.4 1293.97865,104.92 C1293.97865,124.12 1308.05866,140.12 1327.89866,140.12 C1347.73866,140.12 1361.49865,124.44 1361.49865,104.92 C1361.49865,85.72 1347.41866,69.72 1327.57866,69.72 Z M197.212605,77.72 L182.332605,114.04 L212.092605,114.04 L197.212605,77.72 Z M1472.31126,71.16 L1447.83126,71.16 L1447.83126,103.32 L1472.79126,103.32 C1484.79126,103.32 1491.67126,96.92 1491.67126,87.16 C1491.67126,76.6 1484.31126,71.16 1472.31126,71.16 L1472.31126,71.16 Z" id="Combined-Shape" fill="#4CD4A9" fill-rule="nonzero"></path>
    </g>
</svg>