<?xml version="1.0" encoding="UTF-8"?>
<svg width="64px" height="64px" viewBox="0 0 64 64" version="1.1" xmlns="http://www.w3.org/2000/svg" xmlns:xlink="http://www.w3.org/1999/xlink">
    <!-- Generator: Sketch 63 (92445) - https://sketch.com -->
    <title>Artboard@2x</title>
    <desc>Created with Sketch.</desc>
    <g id="Artboard" stroke="none" stroke-width="1" fill="none" fill-rule="evenodd">
        <path d="M55.8333621,14.3888174 C51.2326527,8.63892949 44.4793183,5 37.010973,5 C22.5672786,5 12,18.1110307 12,32.3146474 C12,42.2163616 18.7271644,49.6261556 26.2107044,49.6261556 C26.9096742,49.6261556 27.6035783,49.564311 28.2873532,49.4414467 C23.2755359,45.8709585 20.0685466,39.3673923 20.0685466,32.3146474 C20.0685466,21.0845136 27.8458557,12.3331067 37.010973,12.3331067 C47.0067521,12.3331067 53.9576235,22.0294973 53.9576235,32.3146474 C53.9314534,39.9107994 51.1592105,47.4632477 46.2807707,53.0358481 C42.0227927,57.9001231 36.5078501,60.9849258 30.4442001,61.9637179 C30.4442001,61.9637179 30.9498571,62 31.6108399,62 C48.3945625,62 62,48.7092079 62,32.3146474 C62,25.5793706 59.7021782,19.3693599 55.8333621,14.3888174 Z M52,31.6853526 C52,21.7828137 45.2728356,14.3730199 37.7901394,14.3730199 C37.0903258,14.3730199 36.3972656,14.4348644 35.7126468,14.5585533 C40.725308,18.1290416 43.9314534,24.6326076 43.9314534,31.6853526 C43.9314534,42.9154863 36.1549882,51.6668931 26.9898709,51.6668931 C16.9932479,51.6668931 10.0432203,41.9705027 10.0432203,31.6853526 C10.0685466,24.0892007 12.8416334,16.5367522 17.7192293,10.9641519 C21.9780512,6.09987702 27.4929938,3.01507414 33.5557999,2.0362821 C33.5557999,2.0362821 33.0509868,2 32.3900064,2 C15.6062813,2 2,15.290792 2,31.6853526 C2,38.4198045 4.29782184,44.6298154 8.16748176,49.6120072 C12.7673473,55.3602458 19.5215256,59 26.9898709,59 C41.4335653,59 52,45.8889692 52,31.6853526 L52,31.6853526 Z" id="Fill-1" fill="#4CD4A9" fill-rule="nonzero"></path>
    </g>
</svg>